<svg width="17" height="16" viewBox="0 0 17 16" fill="none" xmlns="http://www.w3.org/2000/svg">
    <g id="Group">
        <g id="Group_2">
            <path id="Vector"
                d="M3.37492 9.93741L1.83325 11.4791C1.49992 11.8124 1.49992 12.3124 1.83325 12.6457L3.91658 14.7291C4.24992 15.0624 4.74992 15.0624 5.08325 14.7291L8.49991 11.3124L11.9166 14.7291C12.2499 15.0624 12.7499 15.0624 13.0832 14.7291L15.1666 12.6457C15.4999 12.3124 15.4999 11.8124 15.1666 11.4791L11.7499 8.06242L15.1666 4.64575C15.4999 4.31242 15.4999 3.81242 15.1666 3.47908L14.0832 2.39575"
                stroke="#5A16EB" stroke-width="1.25" stroke-miterlimit="10" stroke-linecap="round"
                stroke-linejoin="round" />
            <path id="Vector_2"
                d="M12.2916 1.02075L8.49991 4.81242L5.08325 1.39575C4.74992 1.06242 4.24992 1.06242 3.91658 1.39575L1.83325 3.47908C1.49992 3.81242 1.49992 4.31242 1.83325 4.64575L5.24992 8.06241"
                stroke="#5A16EB" stroke-width="1.25" stroke-miterlimit="10" stroke-linecap="round"
                stroke-linejoin="round" />
        </g>
        <g id="Group_3">
            <g id="Group_4">
                <path id="Vector_3"
                    d="M3.37492 9.93741L1.83325 11.4791C1.49992 11.8124 1.49992 12.3124 1.83325 12.6457L3.91658 14.7291C4.24992 15.0624 4.74992 15.0624 5.08325 14.7291L8.49991 11.3124L11.9166 14.7291C12.2499 15.0624 12.7499 15.0624 13.0832 14.7291L15.1666 12.6457C15.4999 12.3124 15.4999 11.8124 15.1666 11.4791L11.7499 8.06242L15.1666 4.64575C15.4999 4.31242 15.4999 3.81242 15.1666 3.47908L14.0832 2.39575"
                    stroke="#5A16EB" stroke-width="1.25" stroke-miterlimit="10"
                    stroke-linecap="round" stroke-linejoin="round" />
                <path id="Vector_4"
                    d="M12.2916 1.02075L8.49991 4.81242L5.08325 1.39575C4.74992 1.06242 4.24992 1.06242 3.91658 1.39575L1.83325 3.47908C1.49992 3.81242 1.49992 4.31242 1.83325 4.64575L5.24992 8.06241"
                    stroke="#5A16EB" stroke-width="1.25" stroke-miterlimit="10"
                    stroke-linecap="round" stroke-linejoin="round" />
            </g>
        </g>
    </g>
</svg>